<svg xmlns="http://www.w3.org/2000/svg" aria-hidden="true" style="position:absolute;width:0;height:0;overflow:hidden"><defs><symbol 
id="icon-korona" viewBox="0 0 39 32"><path fill="#2b7fff" d="M37.805 7.546c-.337-.306-.745-.502-1.178-.566s-.873.004-1.272.2l-8.417 4.107c-.037.022-.078.036-.12.041s-.085 0-.125-.014c-.04-.014-.078-.036-.11-.066s-.059-.066-.078-.108l-4.917-9.717c-.199-.402-.493-.737-.851-.97s-.766-.357-1.182-.357c-.416 0-.824.123-1.182.357s-.652.569-.851.97l-4.917 9.717c-.019.041-.046.078-.078.108s-.07.052-.11.066c-.04.014-.083.018-.125.014s-.083-.018-.12-.041L3.755 7.18c-.398-.198-.838-.27-1.271-.207s-.841.259-1.178.564c-.337.306-.589.709-.728 1.164s-.159.944-.057 1.412l4.25 19.855c.072.336.205.652.391.929s.422.51.692.684c.356.24.766.367 1.183.367.214-.002.426-.033.633-.092a40.736 40.736 0 0 1 23.75-.018c.303.096.621.124.934.081s.615-.155.888-.33.51-.409.698-.687c.188-.279.323-.596.396-.934l4.233-19.855c.106-.464.09-.951-.046-1.405s-.386-.857-.721-1.161zm-1.166 2.053-4.25 19.855a.424.424 0 0 1-.15.238.388.388 0 0 1-.267.037 42.554 42.554 0 0 0-24.833 0 .31.31 0 0 1-.263-.038c-.039-.026-.073-.06-.099-.101s-.045-.087-.055-.136L2.472 9.599a.417.417 0 0 1 .071-.313c.032-.044.072-.079.117-.104s.095-.039.146-.04l.133.037 8.433 4.125c.532.263 1.134.297 1.687.093s1.016-.63 1.296-1.193l4.917-9.717c.026-.058.067-.107.117-.141a.297.297 0 0 1 .334 0c.05.034.09.083.117.141l4.917 9.717c.28.563.743.989 1.296 1.193s1.156.171 1.687-.093l8.433-4.125c.057-.028.12-.037.182-.028s.12.039.168.083c.049.043.086.1.106.165s.024.135.011.202zm-10.75 13.934c-.028.271-.146.521-.33.703s-.422.284-.67.287h-.1a47.572 47.572 0 0 0-10.467 0c-.263.031-.526-.054-.732-.236s-.338-.447-.368-.736c-.023-.291.058-.581.226-.807s.41-.371.674-.403a46.798 46.798 0 0 1 10.867 0c.261.032.5.175.668.397s.251.507.232.795z" style="fill:var(--color1, #2b7fff)"/></symbol><symbol 
id="icon-medklinika" viewBox="0 0 31 32"><path fill="#2b7fff" d="M8.56 12.129H-.121a.472.472 0 0 0-.482.463v2.776c0 .256.216.463.482.463h.482v10.642c0 .256.216.463.482.463h6.752a.472.472 0 0 0 .482-.463V15.831h.482a.472.472 0 0 0 .482-.463v-2.776a.473.473 0 0 0-.482-.463zM3.255 20.92v-.925h2.894v-.925H3.255v-.925h3.858v6.015H3.255v-2.313h.965v-.925h-.965zm3.858-3.701h-4.34a.472.472 0 0 0-.482.463v6.94c0 .256.216.463.482.463h4.34v.925H1.326V15.831h5.787v1.388zm.965-2.314H.362v-1.851h7.716v1.851zM14.95 12.216V8.833a.48.48 0 0 0-.482-.476h-.482V5.975h.964v-.953H9.645v.953h3.376v2.382h-.482a.478.478 0 0 0-.482.476v3.383c-1.099.222-1.929 1.183-1.929 2.334v11.909a.48.48 0 0 0 .482.476h5.787a.478.478 0 0 0 .482-.476V14.55c0-1.15-.83-2.112-1.929-2.334zM13.021 9.31h.964v2.858h-.964V9.31zm-.482 3.811h1.929a1.44 1.44 0 0 1 1.447 1.429v.476h-4.823v-.476a1.44 1.44 0 0 1 1.447-1.429zm3.376 10.956h-4.823v-.953h1.929v-.953h-1.929v-6.193h4.823v8.098zm-4.823 1.906v-.953h4.823v.953h-4.823zM27.278 11.537H19.14a.46.46 0 0 0-.452.467v14.465a.46.46 0 0 0 .452.467h8.138a.46.46 0 0 0 .452-.467V12.004a.46.46 0 0 0-.452-.467zm-.452 14.465h-7.234V12.47h7.234v13.532z" style="fill:var(--color1, #2b7fff)"/><path fill="#2b7fff" d="M6.631 21.013H5.425v.592h1.206v-.592zM15.071 22.197h-1.206v1.185h1.206v-1.185zM13.564 21.013c1.164 0 2.11-.93 2.11-2.073s-.946-2.073-2.11-2.073-2.11.93-2.11 2.073.946 2.073 2.11 2.073zm0-3.109c.582 0 1.055.465 1.055 1.036s-.473 1.036-1.055 1.036-1.055-.465-1.055-1.036.473-1.036 1.055-1.036zM22.079 16.275h2.261c.873 0 1.582-.664 1.582-1.481s-.71-1.481-1.582-1.481h-2.261c-.873 0-1.582.664-1.582 1.481s.71 1.481 1.582 1.481zm2.938-1.481c0 .35-.304.634-.678.634h-.678v-1.269h.678c.374 0 .678.285.678.635zm-2.938-.634h.678v1.269h-.678c-.374 0-.678-.285-.678-.634s.304-.635.678-.635zM22.079 21.013h2.261c.873 0 1.582-.797 1.582-1.777s-.71-1.777-1.582-1.777h-2.261c-.873 0-1.582.797-1.582 1.777s.71 1.777 1.582 1.777zm2.938-1.777c0 .42-.304.761-.678.761h-.678v-1.523h.678c.374 0 .678.342.678.761zm-2.938-.761h.678v1.523h-.678c-.374 0-.678-.342-.678-.761s.304-.761.678-.761zM22.079 25.159h2.261c.873 0 1.582-.797 1.582-1.777s-.71-1.777-1.582-1.777h-2.261c-.873 0-1.582.797-1.582 1.777s.71 1.777 1.582 1.777zm2.938-1.777c0 .42-.304.761-.678.761h-.678V22.62h.678c.374 0 .678.342.678.761zm-2.938-.761h.678v1.523h-.678c-.374 0-.678-.342-.678-.761s.304-.761.678-.761z" style="fill:var(--color1, #2b7fff)"/></symbol><symbol 
id="icon-game" viewBox="0 0 32 32"><path fill="#2b7fff" d="M16.061 1.4c-1.05 0-2.031.478-2.867 1.261s-1.551 1.874-2.148 3.195c-.125.277-.244.564-.359.861a16.087 16.087 0 0 0-.927-.12 13.895 13.895 0 0 0-1.054-.066c-1.026-.024-1.964.08-2.786.329-1.096.332-2 .943-2.525 1.852s-.601 1.998-.341 3.113c.26 1.115.847 2.28 1.693 3.457.178.247.367.494.567.742-.196.242-.385.489-.566.741-.846 1.177-1.433 2.342-1.693 3.457s-.184 2.204.341 3.113c.525.909 1.429 1.52 2.525 1.852s2.398.407 3.841.263c.302-.03.611-.071.926-.12.112.291.231.579.359.863.596 1.321 1.312 2.412 2.148 3.195s1.817 1.261 2.867 1.261 2.031-.478 2.866-1.261 1.551-1.874 2.148-3.195c.128-.284.248-.572.359-.862.314.049.623.09.925.12 1.442.144 2.745.07 3.841-.263s2.001-.943 2.526-1.852c.525-.909.601-1.998.341-3.113s-.847-2.28-1.693-3.457c-.182-.252-.371-.5-.567-.741.196-.242.385-.489.567-.742.846-1.177 1.433-2.342 1.693-3.457s.184-2.204-.341-3.113c-.525-.909-1.429-1.52-2.525-1.852-.822-.249-1.76-.353-2.786-.329-.342.008-.694.03-1.055.066a16.8 16.8 0 0 0-.926.12c-.111-.29-.231-.577-.359-.861-.596-1.321-1.312-2.412-2.148-3.195s-1.817-1.261-2.866-1.261zm0 1.168c.7 0 1.387.308 2.068.946s1.331 1.603 1.882 2.823c.09.199.175.4.255.603a24.805 24.805 0 0 0-4.205 1.364 24.805 24.805 0 0 0-4.205-1.364c.083-.207.167-.409.255-.603.551-1.22 1.201-2.185 1.882-2.823s1.368-.946 2.068-.946zM8.337 7.696a12.707 12.707 0 0 1 1.309.062c.213.021.43.048.652.08a24.722 24.722 0 0 0-.921 4.324 24.81 24.81 0 0 0-3.284 2.96 13.294 13.294 0 0 1-.395-.524c-.781-1.087-1.292-2.133-1.504-3.041s-.135-1.657.215-2.264c.35-.607.96-1.047 1.853-1.318.586-.178 1.287-.273 2.077-.281zm15.448 0c.789.007 1.491.103 2.077.281.893.271 1.503.711 1.853 1.318s.427 1.355.215 2.264c-.212.909-.723 1.954-1.504 3.041-.128.177-.26.352-.395.524a24.81 24.81 0 0 0-3.284-2.96 24.72 24.72 0 0 0-.922-4.324c.221-.032.438-.059.651-.08a11.984 11.984 0 0 1 1.309-.062zm-3.12.353c.311.965.568 2.029.76 3.169a31.692 31.692 0 0 0-3.884-2.243 22.647 22.647 0 0 1 3.124-.926zm-9.208 0c.991.213 2.041.523 3.123.926a31.805 31.805 0 0 0-3.883 2.242 22.64 22.64 0 0 1 .76-3.168zm4.604 1.529c.95.419 1.915.906 2.877 1.462s1.867 1.147 2.705 1.761c.112 1.033.173 2.112.173 3.223s-.06 2.189-.172 3.222c-.838.614-1.743 1.205-2.705 1.761s-1.927 1.043-2.877 1.462c-.951-.419-1.916-.907-2.878-1.462s-1.866-1.147-2.704-1.76a29.94 29.94 0 0 1 0-6.446c.838-.614 1.743-1.205 2.705-1.761s1.926-1.043 2.877-1.462zm.079 1.757-3.344 2.064 3.344 2.064 3.344-2.064-3.344-2.064zm-6.923 2.446a31.648 31.648 0 0 0 0 4.484 22.675 22.675 0 0 1-2.364-2.242 22.675 22.675 0 0 1 2.364-2.242zm13.688 0c.89.736 1.683 1.49 2.363 2.242a22.76 22.76 0 0 1-2.363 2.242 31.611 31.611 0 0 0-.001-4.483zm-10.862.525v4.075l3.512 2.167v-4.075l-3.512-2.168zm8.191.002-3.511 2.167v4.073l3.511-2.167v-4.073zM6.091 16.923a24.74 24.74 0 0 0 3.284 2.96c.196 1.56.51 3.016.921 4.323-.221.032-.438.059-.65.08-1.331.133-2.493.053-3.386-.218s-1.502-.712-1.853-1.318c-.35-.607-.427-1.355-.215-2.264s.723-1.954 1.504-3.041c.128-.177.259-.352.395-.523zm19.939 0c.138.175.27.349.395.523.781 1.087 1.292 2.133 1.504 3.041s.135 1.657-.215 2.264c-.35.606-.96 1.047-1.853 1.318s-2.054.351-3.386.218a15.79 15.79 0 0 1-.65-.08c.412-1.308.725-2.764.921-4.324a24.794 24.794 0 0 0 3.283-2.959zm-4.605 3.905a22.655 22.655 0 0 1-.76 3.169 22.688 22.688 0 0 1-3.124-.926 32.057 32.057 0 0 0 3.884-2.242zm-10.727.001a32.168 32.168 0 0 0 3.883 2.242 22.635 22.635 0 0 1-3.123.926 22.503 22.503 0 0 1-.759-3.168zm5.398.053.043.026.042-.026h-.085zm-.035 2.861a24.725 24.725 0 0 0 4.206 1.364 14.57 14.57 0 0 1-.256.604c-.551 1.22-1.201 2.185-1.882 2.823s-1.368.946-2.068.946-1.387-.308-2.068-.946-1.331-1.603-1.882-2.823c-.09-.2-.175-.401-.256-.604a24.805 24.805 0 0 0 4.205-1.364z" style="fill:var(--color1, #2b7fff)"/></symbol><symbol id="icon-fb" viewBox="0 0 19 32"><path fill="#011c44" d="M17.64 1.245a41.42 41.42 0 0 0-4.468-.23c-4.948 0-8.023 3.151-8.023 8.224v3.444H.993a.735.735 0 0 0-.735.735v5.664a.733.733 0 0 0 .735.735h4.156v11.358a.735.735 0 0 0 .735.735h5.853a.735.735 0 0 0 .736-.735V19.817h4.143a.733.733 0 0 0 .729-.64l.731-5.664a.724.724 0 0 0-.177-.581.725.725 0 0 0-.554-.25h-4.874V9.8c0-1.427.287-2.023 2.072-2.023h3a.735.735 0 0 0 .735-.735V1.973a.733.733 0 0 0-.64-.729zm-.831 5.061-2.266.001c-3.174 0-3.541 1.995-3.541 3.494v3.619a.735.735 0 0 0 .734.736h4.776l-.543 4.193h-4.231a.733.733 0 0 0-.735.735v11.355H6.622V19.084a.735.735 0 0 0-.735-.735H1.732v-4.193h4.155a.735.735 0 0 0 .735-.735V9.24c0-4.228 2.45-6.753 6.552-6.753 1.484 0 2.825.081 3.637.152v3.668z" style="fill:var(--color2, #011c44)"/></symbol><symbol 
id="icon-instagram" viewBox="0 0 32 32"><path fill="#011c44" d="M16 8.923a7.075 7.075 0 0 0-6.539 4.369 7.075 7.075 0 0 0 9.246 9.246 7.082 7.082 0 0 0 4.369-6.539 7.077 7.077 0 0 0-7.077-7.077zm0 12.308a5.228 5.228 0 0 1-4.833-3.229 5.225 5.225 0 0 1 1.134-5.7 5.228 5.228 0 0 1 8.047.793c.575.86.882 1.871.882 2.906-.004 1.386-.556 2.714-1.537 3.694s-2.308 1.532-3.694 1.537zM22.769.923H9.231A8.307 8.307 0 0 0 .924 9.23v13.538a8.307 8.307 0 0 0 8.307 8.307h13.538a8.307 8.307 0 0 0 8.307-8.307V9.23A8.307 8.307 0 0 0 22.769.923zm6.462 21.846a6.46 6.46 0 0 1-6.462 6.462H9.231a6.46 6.46 0 0 1-6.462-6.462V9.231a6.46 6.46 0 0 1 6.462-6.462h13.538a6.46 6.46 0 0 1 6.462 6.462v13.538zM25.538 8a1.54 1.54 0 0 1-2.626 1.089 1.535 1.535 0 0 1-.333-1.677 1.542 1.542 0 0 1 1.422-.949 1.538 1.538 0 0 1 1.539 1.539z" style="fill:var(--color2, #011c44)"/></symbol><symbol id="icon-telefon" viewBox="0 0 28 32"><path fill="#011c44" d="m25.655 22.957-.173-.216c-1.372-1.735-2.519-2.637-3.503-2.756-.851-.116-1.673.472-2.548 1.077l-.935.584a2.054 2.054 0 0 1-.327.132c-.547.155-1.927.245-2.708-.469-.909-.832-2.32-2.355-3.417-3.685-1.048-1.377-2.2-3.095-2.801-4.176-.508-.916-.083-2.197.201-2.672.056-.093.129-.185.211-.276l.824-.761c.012-.012.017-.027.028-.037.008-.008.021-.005.031-.012.744-.628 1.513-1.275 1.619-2.105.124-.976-.483-2.296-1.857-4.029l-.168-.216C9.281 2.249 7.995.6 6.147.872c-.727.108-1.376.356-2.045.776-.007.004-.011.012-.016.016s-.012.004-.017.008l-.932.691c-.009.005-.015.017-.024.025-.007.007-.017.008-.025.015a13.74 13.74 0 0 0-.323.28c-.945.843-2.992 3.289-1.596 7.815.901 2.923 2.76 6.333 5.388 9.883l-.025.021 1.449 1.805.012-.009c2.849 3.371 5.749 5.976 8.407 7.553 1.773 1.053 3.323 1.401 4.597 1.401 1.677 0 2.879-.603 3.481-.995l.379-.253c.043-.029.073-.071.104-.108l.825-.621c.009-.008.015-.019.024-.027.004-.004.011-.003.016-.007.587-.536.993-1.097 1.276-1.763.732-1.705-.579-3.339-1.445-4.42zm.465 4.002c-.22.517-.541.957-1.005 1.384l-1.228.924c-1.112.723-3.489 1.616-6.943-.435-2.657-1.577-5.583-4.244-8.461-7.712l-.779-.984c-2.711-3.595-4.617-7.037-5.517-9.955-1.169-3.793.304-5.828 1.291-6.707.1-.091.2-.175.299-.259l.004-.004.895-.663a4.067 4.067 0 0 1 1.628-.624c1.239-.187 2.247 1.12 2.987 2.069l.173.22C11 6.15 11.148 7.072 11.1 7.448c-.053.417-.688.952-1.248 1.423l-.079.067c-.003.003-.004.007-.007.009l-.012.007-.852.788c-.005.005-.008.012-.013.019s-.016.009-.021.016a3.007 3.007 0 0 0-.337.449c-.479.801-.931 2.457-.217 3.739.623 1.12 1.808 2.889 2.897 4.319 1.139 1.381 2.591 2.949 3.532 3.809.705.644 1.687.86 2.536.86.455 0 .872-.063 1.188-.152.167-.048.339-.117.516-.204.011-.005.016-.015.027-.021.005-.003.013-.001.019-.005l.989-.619c.032-.021.053-.049.08-.076l.012.013c.609-.423 1.304-.919 1.739-.847.385.047 1.26.417 2.799 2.36l.177.223c.749.935 1.776 2.215 1.297 3.333z" style="fill:var(--color2, #011c44)"/></symbol><symbol 
id="icon-Arrow2" viewBox="0 0 32 32"><path fill="#fff" d="M0 16c0 8.837 7.163 16 16 16s16-7.163 16-16S24.837 0 16 0 0 7.163 0 16z" style="fill:var(--color3, #fff)"/><path fill="none" stroke="#011c44" stroke-width=".559" d="M.279 16c0 8.682 7.038 15.721 15.721 15.721S31.721 24.683 31.721 16C31.721 7.318 24.683.279 16 .279S.279 7.317.279 16z" style="stroke:var(--color2, #011c44)"/><path fill="#011c44" d="M23.06 15.486a.728.728 0 0 1 0 1.029l-4.628 4.628a.728.728 0 0 1-1.029-1.029L21.517 16l-4.114-4.114a.727.727 0 1 1 1.029-1.028l4.628 4.628zm-.515 1.241h-12.19v-1.455h12.19v1.455z" style="fill:var(--color2, #011c44)"/></symbol><symbol 
id="icon-Arrow1" viewBox="0 0 32 32"><path fill="#fff" d="M0 16c0 8.837 7.163 16 16 16s16-7.163 16-16S24.837 0 16 0 0 7.163 0 16z" style="fill:var(--color3, #fff)"/><path fill="none" stroke="#011c44" stroke-width=".559" d="M.279 16c0 8.682 7.038 15.721 15.721 15.721S31.721 24.683 31.721 16C31.721 7.318 24.683.279 16 .279S.279 7.317.279 16z" style="stroke:var(--color2, #011c44)"/><path fill="#011c44" d="M9.841 16.514a.727.727 0 0 1 0-1.028l4.628-4.628a.728.728 0 0 1 1.029 1.028L11.384 16l4.114 4.114a.728.728 0 0 1-1.029 1.029l-4.628-4.628zm12.704.213h-12.19v-1.455h12.19v1.455z" style="fill:var(--color2, #011c44)"/></symbol></defs></svg>
