<?xml version="1.0" encoding="UTF-8"?>
<!DOCTYPE svg PUBLIC "-//W3C//DTD SVG 1.1//EN" "http://www.w3.org/Graphics/SVG/1.1/DTD/svg11.dtd">
<!-- Creator: CorelDRAW X8 -->
<svg xmlns="http://www.w3.org/2000/svg" xml:space="preserve" width="210mm" height="297mm" version="1.1" style="shape-rendering:geometricPrecision; text-rendering:geometricPrecision; image-rendering:optimizeQuality; fill-rule:evenodd; clip-rule:evenodd"
viewBox="0 0 21000 29700"
 xmlns:xlink="http://www.w3.org/1999/xlink">
 <defs>
  <style type="text/css">
   <![CDATA[
    .str0 {stroke:#0E278C;stroke-width:100}
    .str2 {stroke:#2B2A29;stroke-width:20}
    .str1 {stroke:#1E3079;stroke-width:100;stroke-linejoin:round}
    .fil0 {fill:#FEFEFE}
    .fil2 {fill:#FFED00}
    .fil1 {fill:#1E3079}
    .fil3 {fill:white}
   ]]>
  </style>
    <clipPath id="id0">
     <path d="M6161 9384l8394 0 0 11090 -8394 0 0 -11090z"/>
    </clipPath>
   <mask id="id1">
  <linearGradient id="id2" gradientUnits="userSpaceOnUse" x1="10663.5" y1="14043.2" x2="9570.9" y2="6093.82">
   <stop offset="0" style="stop-opacity:0.2; stop-color:white"/>
   <stop offset="1" style="stop-opacity:0.101961; stop-color:white"/>
  </linearGradient>
    <rect style="fill:url(#id2)" x="1406" y="6007" width="18409" height="9239"/>
   </mask>
 </defs>
 <g id="Слой_x0020_1">
  <metadata id="CorelCorpID_0Corel-Layer"/>
  <circle class="fil0" cx="10500" cy="14850" r="9200"/>
  <circle class="fil1" cx="10500" cy="14850" r="8747"/>
  <g id="_811795040">
   <polygon class="fil0 str0" points="8867,6734 10008,7590 10576,6966 11056,7515 12097,6727 12824,7954 13587,7595 13821,8286 15084,7956 15285,9369 16128,9328 16080,10057 17373,10235 17019,11617 17813,11903 17489,12557 18616,13217 17760,14358 18384,14926 17835,15406 18623,16447 17396,17174 17755,17937 17064,18171 17394,19434 15981,19635 16022,20478 15293,20430 15115,21723 13733,21369 13447,22163 12793,21839 12133,22966 10992,22110 10424,22734 9944,22185 8903,22973 8177,21746 7413,22105 7179,21414 5916,21744 5715,20331 4872,20372 4920,19643 3627,19465 3981,18083 3187,17797 3511,17143 2384,16483 3240,15342 2616,14774 3165,14294 2377,13253 3604,12527 3245,11763 3936,11529 3606,10266 5019,10065 4978,9222 5707,9270 5885,7977 7267,8331 7553,7537 8207,7861 "/>
   <polygon class="fil1 str0" points="9057,7677 10487,8750 11912,7671 12822,9210 14551,8758 14804,10527 16574,10772 16130,12503 17673,13407 16600,14837 17679,16262 16140,17172 16592,18901 14823,19154 14578,20924 12847,20480 11943,22023 10513,20950 9088,22029 8178,20490 6449,20942 6196,19173 4426,18928 4870,17197 3327,16293 4400,14863 3321,13438 4860,12528 4408,10799 6177,10546 6422,8776 8153,9220 "/>
  </g>
  <g id="_811794528">
   <g style="clip-path:url(#id0)">
    <image x="6161" y="9384" width="8394" height="11090" xlink:href="nvk logo_Images\nvk logo_ImgID1.png"/>
   </g>
  </g>
  <path class="fil2 str1" d="M13736 12042c226,0 411,185 411,411l0 2005 61 2492 -706 936c-10,508 -76,1298 -76,1702 0,429 -1106,778 -2470,778 -1295,0 -2358,-314 -2462,-713l-31 1 -26 -2364 -2045 -2654c-260,-337 -184,-808 168,-1046l0 0c300,-300 852,-157 1112,180l733 952 0 -264 0 -3021c0,-284 232,-517 516,-517l0 0c285,0 517,233 517,517l0 2859c-24,203 176,255 315,255 138,0 332,-71 346,-228l0 -4108c0,-284 233,-516 517,-516l0 0c284,0 516,232 516,516l0 4088c-15,143 170,271 308,271 138,0 351,-116 353,-259l0 -3136c0,-238 195,-432 433,-432l0 0c238,0 432,194 432,432l0 3140c-18,178 167,243 308,243 140,0 356,-82 360,-247l0 -1862c0,-226 185,-411 410,-411l0 0zm-5251 7546c0,6 0,13 1,19 -1,-6 -1,-13 -1,-19zm1 21c0,5 1,11 2,16 -1,-5 -2,-11 -2,-16zm3 22c1,4 1,8 2,12 -1,-4 -1,-8 -2,-12z"/>
  <path class="fil3 str2" style="mask:url(#id1)" d="M11189 12915c3946,-542 9800,-346 8407,-381 -85,-3 -213,-1402 -2867,-3993 -1722,-1681 -4548,-2806 -7047,-2462 -7727,1062 -8803,9112 -8074,9153 1776,98 5720,-1786 9581,-2317z"/>
 </g>
</svg>
